<?xml version="1.0" encoding="UTF-8"?>
<svg xmlns="http://www.w3.org/2000/svg" xmlns:xlink="http://www.w3.org/1999/xlink" width="180px" height="180px" viewBox="0 0 180 180" version="1.1">
<defs>
<radialGradient id="radial0" gradientUnits="userSpaceOnUse" cx="0" cy="0" fx="0" fy="0" r="1" gradientTransform="matrix(69.401927,0,0,68.778899,90,94.432048)">
<stop offset="0.15" style="stop-color:rgb(24.705882%,23.921569%,43.529412%);stop-opacity:1;"/>
<stop offset="0.5" style="stop-color:rgb(40%,40%,100%);stop-opacity:1;"/>
</radialGradient>
<radialGradient id="radial1" gradientUnits="userSpaceOnUse" cx="0" cy="0" fx="0" fy="0" r="1" gradientTransform="matrix(68.620726,0,0,67.350376,89.887047,94.220776)">
<stop offset="0.15" style="stop-color:rgb(24.705882%,23.921569%,43.529412%);stop-opacity:1;"/>
<stop offset="0.5" style="stop-color:rgb(79.607843%,79.607843%,100%);stop-opacity:1;"/>
</radialGradient>
</defs>
<g id="surface1">
<path style=" stroke:none;fill-rule:nonzero;fill:url(#radial0);" d="M 97.53125 90.191406 C 95.96875 87.839844 95.132812 85.089844 95.128906 82.273438 L 95.128906 56.867188 C 95.128906 55.371094 96.523438 54.234375 98.011719 54.53125 C 104.375 55.800781 110.210938 58.546875 115.109375 62.425781 C 119.847656 66.191406 126.328125 66.871094 131.589844 63.875 L 160.796875 47.15625 C 162.402344 46.25 162.402344 43.960938 160.796875 43.027344 L 97.277344 6.4375 C 95.0625 5.167969 92.546875 4.5 89.988281 4.5 C 87.429688 4.5 84.914062 5.167969 82.699219 6.4375 L 19.203125 43.027344 C 17.597656 43.960938 17.597656 46.226562 19.203125 47.15625 L 48.410156 63.875 C 53.652344 66.871094 60.152344 66.191406 64.890625 62.425781 C 69.789062 58.546875 75.601562 55.800781 81.988281 54.53125 C 83.476562 54.234375 84.871094 55.371094 84.871094 56.867188 L 84.871094 82.273438 C 84.871094 85.132812 84.003906 87.875 82.46875 90.191406 C 86.222656 92.34375 90 94.5 90 94.5 Z M 97.53125 90.191406 "/>
<path style=" stroke:none;fill-rule:nonzero;fill:rgb(24.705882%,23.921569%,43.529412%);fill-opacity:1;" d="M 82.5625 90.066406 C 81.363281 91.863281 79.710938 93.394531 77.746094 94.523438 L 55.792969 106.972656 C 54.503906 107.703125 52.828125 107.105469 52.355469 105.707031 C 51.019531 101.824219 50.296875 97.652344 50.296875 93.328125 C 50.296875 91.328125 50.457031 89.378906 50.75 87.445312 C 51.652344 81.632812 49.03125 75.84375 43.851562 72.914062 L 15.003906 56.5625 C 13.421875 55.675781 11.453125 56.785156 11.453125 58.582031 L 11.25 129.78125 C 11.25 134.816406 13.984375 139.476562 18.441406 142.003906 L 81.386719 177.4375 C 82.96875 178.324219 84.933594 177.214844 84.933594 175.417969 L 84.933594 142.824219 C 84.933594 136.945312 81.160156 131.777344 75.574219 129.625 C 69.699219 127.371094 64.460938 123.773438 60.289062 119.128906 C 59.296875 118.019531 59.589844 116.289062 60.878906 115.558594 L 82.808594 103.132812 C 85.027344 101.867188 87.511719 101.246094 90 101.246094 L 90 94.28125 C 90 94.28125 86.292969 92.171875 82.5625 90.066406 Z M 82.5625 90.066406 "/>
<path style=" stroke:none;fill-rule:nonzero;fill:url(#radial1);" d="M 168.523438 58.582031 C 168.523438 56.785156 166.535156 55.675781 164.972656 56.5625 L 136.148438 72.894531 C 130.96875 75.824219 128.347656 81.617188 129.25 87.429688 C 129.542969 89.339844 129.703125 91.3125 129.703125 93.3125 C 129.703125 97.636719 128.980469 101.789062 127.644531 105.695312 C 127.171875 107.089844 125.496094 107.691406 124.207031 106.957031 L 102.253906 94.507812 C 100.320312 93.40625 98.671875 91.878906 97.4375 90.046875 L 90 94.265625 L 90 101.234375 C 92.488281 101.234375 94.953125 101.855469 97.191406 103.121094 L 119.121094 115.546875 C 120.410156 116.277344 120.703125 118.011719 119.710938 119.121094 C 115.539062 123.765625 110.300781 127.363281 104.425781 129.617188 C 98.839844 131.746094 95.066406 136.917969 95.066406 142.820312 L 95.066406 175.417969 C 95.066406 177.214844 97.03125 178.324219 98.613281 177.4375 L 161.558594 142 C 163.746094 140.757812 165.558594 138.976562 166.820312 136.828125 C 168.082031 134.683594 168.75 132.25 168.75 129.769531 L 168.546875 58.558594 Z M 168.523438 58.582031 "/>
</g>
</svg>
